<svg width="183" height="38" viewBox="0 0 183 38" fill="none" xmlns="http://www.w3.org/2000/svg">
<path d="M2.69531 22.1499V18.3999L17.6953 11.7947V16.1094L7.42543 20.2322L7.56392 20.0085V20.5412L7.42543 20.3175L17.6953 24.4403V28.755L2.69531 22.1499ZM31.7045 6.15909L24.6733 32.2812H20.7635L27.7947 6.15909H31.7045ZM49.7754 22.1499L34.7754 28.755V24.4403L45.0453 20.3175L44.9068 20.5412V20.0085L45.0453 20.2322L34.7754 16.1094V11.7947L49.7754 18.3999V22.1499Z" fill="#009CD5"/>
<path d="M71.916 24.1367C71.916 24.8496 71.7793 25.5186 71.5059 26.1436C71.2422 26.7686 70.876 27.3154 70.4072 27.7842C69.9385 28.2529 69.3916 28.624 68.7666 28.8975C68.1416 29.1611 67.4727 29.293 66.7598 29.293H65.2656C64.5527 29.293 63.8789 29.1611 63.2441 28.8975C62.6191 28.624 62.0723 28.2529 61.6035 27.7842C61.1348 27.3154 60.7637 26.7686 60.4902 26.1436C60.2266 25.5186 60.0947 24.8496 60.0947 24.1367V12.8574C60.0947 12.1445 60.2266 11.4756 60.4902 10.8506C60.7637 10.2256 61.1348 9.67871 61.6035 9.20996C62.0723 8.74121 62.6191 8.375 63.2441 8.11133C63.8789 7.83789 64.5527 7.70117 65.2656 7.70117H66.7598C67.4727 7.70117 68.1416 7.83789 68.7666 8.11133C69.3916 8.375 69.9385 8.74121 70.4072 9.20996C70.876 9.67871 71.2422 10.2256 71.5059 10.8506C71.7793 11.4756 71.916 12.1445 71.916 12.8574V13.707L70.0264 14V12.8574C70.0264 12.3887 69.9385 11.9541 69.7627 11.5537C69.5869 11.1436 69.3477 10.7871 69.0449 10.4844C68.7422 10.1816 68.3857 9.94238 67.9756 9.7666C67.5752 9.59082 67.1406 9.50293 66.6719 9.50293H65.3535C64.8848 9.50293 64.4453 9.59082 64.0352 9.7666C63.6348 9.94238 63.2783 10.1816 62.9658 10.4844C62.6631 10.7871 62.4238 11.1436 62.248 11.5537C62.0723 11.9541 61.9844 12.3887 61.9844 12.8574V24.1367C61.9844 24.6055 62.0723 25.0449 62.248 25.4551C62.4238 25.8555 62.6631 26.2119 62.9658 26.5244C63.2783 26.8271 63.6348 27.0664 64.0352 27.2422C64.4453 27.418 64.8848 27.5059 65.3535 27.5059H66.6719C67.1406 27.5059 67.5752 27.418 67.9756 27.2422C68.3857 27.0664 68.7422 26.8271 69.0449 26.5244C69.3477 26.2119 69.5869 25.8555 69.7627 25.4551C69.9385 25.0449 70.0264 24.6055 70.0264 24.1367V22.9941L71.916 23.3018V24.1367ZM85.5537 24.8838C85.5537 25.4893 85.4365 26.0605 85.2021 26.5977C84.9775 27.1348 84.665 27.6035 84.2646 28.0039C83.8643 28.4043 83.3955 28.7217 82.8584 28.9561C82.3213 29.1807 81.75 29.293 81.1445 29.293H79.9434C79.3379 29.293 78.7666 29.1807 78.2295 28.9561C77.6924 28.7217 77.2236 28.4043 76.8232 28.0039C76.4229 27.6035 76.1055 27.1348 75.8711 26.5977C75.6465 26.0605 75.5342 25.4893 75.5342 24.8838V18.1162C75.5342 17.5107 75.6465 16.9395 75.8711 16.4023C76.1055 15.8652 76.4229 15.3965 76.8232 14.9961C77.2236 14.5957 77.6924 14.2832 78.2295 14.0586C78.7666 13.8242 79.3379 13.707 79.9434 13.707H81.1445C81.75 13.707 82.3213 13.8242 82.8584 14.0586C83.3955 14.2832 83.8643 14.5957 84.2646 14.9961C84.665 15.3965 84.9775 15.8652 85.2021 16.4023C85.4365 16.9395 85.5537 17.5107 85.5537 18.1162V24.8838ZM83.752 18.0137C83.752 17.6523 83.6836 17.3154 83.5469 17.0029C83.4102 16.6807 83.2246 16.4023 82.9902 16.168C82.7559 15.9336 82.4775 15.748 82.1553 15.6113C81.8428 15.4746 81.5059 15.4062 81.1445 15.4062H79.9434C79.582 15.4062 79.2402 15.4746 78.918 15.6113C78.6055 15.748 78.332 15.9336 78.0977 16.168C77.8633 16.4023 77.6777 16.6807 77.541 17.0029C77.4043 17.3154 77.3359 17.6523 77.3359 18.0137V24.9863C77.3359 25.3477 77.4043 25.6895 77.541 26.0117C77.6777 26.3242 77.8633 26.5977 78.0977 26.832C78.332 27.0664 78.6055 27.252 78.918 27.3887C79.2402 27.5254 79.582 27.5938 79.9434 27.5938H81.1445C81.5059 27.5938 81.8428 27.5254 82.1553 27.3887C82.4775 27.252 82.7559 27.0664 82.9902 26.832C83.2246 26.5977 83.4102 26.3242 83.5469 26.0117C83.6836 25.6895 83.752 25.3477 83.752 24.9863V18.0137ZM98.5762 29L97.5801 27.4766C97.1699 28.0332 96.6572 28.4775 96.042 28.8096C95.4268 29.1318 94.7529 29.293 94.0205 29.293H93.5664C92.9609 29.293 92.3896 29.1807 91.8525 28.9561C91.3154 28.7217 90.8467 28.4043 90.4463 28.0039C90.0459 27.6035 89.7285 27.1348 89.4941 26.5977C89.2695 26.0605 89.1572 25.4893 89.1572 24.8838V18.1162C89.1572 17.5107 89.2695 16.9395 89.4941 16.4023C89.7285 15.8652 90.0459 15.3965 90.4463 14.9961C90.8467 14.5957 91.3154 14.2832 91.8525 14.0586C92.3896 13.8242 92.9609 13.707 93.5664 13.707H94.0205C94.6943 13.707 95.3193 13.8437 95.8955 14.1172C96.4717 14.3906 96.9648 14.7715 97.375 15.2598V7.99414H99.1768V29H98.5762ZM97.375 18.0137C97.375 17.6523 97.3066 17.3154 97.1699 17.0029C97.0332 16.6807 96.8477 16.4023 96.6133 16.168C96.3789 15.9336 96.1006 15.748 95.7783 15.6113C95.4658 15.4746 95.1289 15.4062 94.7676 15.4062H93.5664C93.2051 15.4062 92.8633 15.4746 92.541 15.6113C92.2285 15.748 91.9551 15.9336 91.7207 16.168C91.4863 16.4023 91.3008 16.6807 91.1641 17.0029C91.0273 17.3154 90.959 17.6523 90.959 18.0137V24.9863C90.959 25.3477 91.0273 25.6895 91.1641 26.0117C91.3008 26.3242 91.4863 26.5977 91.7207 26.832C91.9551 27.0664 92.2285 27.252 92.541 27.3887C92.8633 27.5254 93.2051 27.5938 93.5664 27.5938H94.7676C95.1289 27.5938 95.4658 27.5254 95.7783 27.3887C96.1006 27.252 96.3789 27.0664 96.6133 26.832C96.8477 26.5977 97.0332 26.3242 97.1699 26.0117C97.3066 25.6895 97.375 25.3477 97.375 24.9863V18.0137ZM112.8 24.8838C112.8 25.4893 112.683 26.0605 112.448 26.5977C112.224 27.1348 111.911 27.6035 111.511 28.0039C111.11 28.4043 110.642 28.7217 110.104 28.9561C109.567 29.1807 108.996 29.293 108.391 29.293H107.189C106.584 29.293 106.013 29.1807 105.476 28.9561C104.938 28.7217 104.47 28.4043 104.069 28.0039C103.669 27.6035 103.352 27.1348 103.117 26.5977C102.893 26.0605 102.78 25.4893 102.78 24.8838V18.1162C102.78 17.5107 102.893 16.9395 103.117 16.4023C103.352 15.8652 103.669 15.3965 104.069 14.9961C104.47 14.5957 104.938 14.2832 105.476 14.0586C106.013 13.8242 106.584 13.707 107.189 13.707H108.391C108.996 13.707 109.567 13.8242 110.104 14.0586C110.642 14.2832 111.11 14.5957 111.511 14.9961C111.911 15.3965 112.224 15.8652 112.448 16.4023C112.683 16.9395 112.8 17.5107 112.8 18.1162V21.6465H104.582V24.9863C104.582 25.3477 104.65 25.6895 104.787 26.0117C104.924 26.3242 105.109 26.5977 105.344 26.832C105.578 27.0664 105.852 27.252 106.164 27.3887C106.486 27.5254 106.828 27.5938 107.189 27.5938H108.391C108.752 27.5938 109.089 27.5254 109.401 27.3887C109.724 27.252 110.002 27.0664 110.236 26.832C110.471 26.5977 110.656 26.3242 110.793 26.0117C110.93 25.6895 110.998 25.3477 110.998 24.9863V23.9902L112.8 24.2832V24.8838ZM110.998 18.0137C110.998 17.6523 110.93 17.3154 110.793 17.0029C110.656 16.6807 110.471 16.4023 110.236 16.168C110.002 15.9336 109.724 15.748 109.401 15.6113C109.089 15.4746 108.752 15.4062 108.391 15.4062H107.189C106.828 15.4062 106.486 15.4746 106.164 15.6113C105.852 15.748 105.578 15.9336 105.344 16.168C105.109 16.4023 104.924 16.6807 104.787 17.0029C104.65 17.3154 104.582 17.6523 104.582 18.0137V20.2402H110.998V18.0137ZM128.518 24.1367C128.518 24.8203 128.396 25.4648 128.151 26.0703C127.907 26.6758 127.57 27.208 127.141 27.667C126.711 28.126 126.203 28.502 125.617 28.7949C125.041 29.0781 124.421 29.2441 123.757 29.293L125.676 33.6143H123.786L121.867 29.293C121.154 29.293 120.48 29.1611 119.846 28.8975C119.221 28.624 118.674 28.2529 118.205 27.7842C117.736 27.3154 117.365 26.7686 117.092 26.1436C116.828 25.5186 116.696 24.8496 116.696 24.1367V12.8574C116.696 12.1445 116.828 11.4756 117.092 10.8506C117.365 10.2256 117.736 9.67871 118.205 9.20996C118.674 8.74121 119.221 8.375 119.846 8.11133C120.48 7.83789 121.154 7.70117 121.867 7.70117H123.361C124.074 7.70117 124.743 7.83789 125.368 8.11133C125.993 8.375 126.54 8.74121 127.009 9.20996C127.478 9.67871 127.844 10.2256 128.107 10.8506C128.381 11.4756 128.518 12.1445 128.518 12.8574V24.1367ZM126.628 12.8574C126.628 12.3887 126.54 11.9541 126.364 11.5537C126.188 11.1436 125.949 10.7871 125.646 10.4844C125.344 10.1816 124.987 9.94238 124.577 9.7666C124.177 9.59082 123.742 9.50293 123.273 9.50293H121.955C121.486 9.50293 121.047 9.59082 120.637 9.7666C120.236 9.94238 119.88 10.1816 119.567 10.4844C119.265 10.7871 119.025 11.1436 118.85 11.5537C118.674 11.9541 118.586 12.3887 118.586 12.8574V24.1367C118.586 24.6055 118.674 25.0449 118.85 25.4551C119.025 25.8555 119.265 26.2119 119.567 26.5244C119.88 26.8271 120.236 27.0664 120.637 27.2422C121.047 27.418 121.486 27.5059 121.955 27.5059H123.273C123.742 27.5059 124.177 27.418 124.577 27.2422C124.987 27.0664 125.344 26.8271 125.646 26.5244C125.949 26.2119 126.188 25.8555 126.364 25.4551C126.54 25.0449 126.628 24.6055 126.628 24.1367V12.8574ZM141.848 29L140.852 27.4766C140.441 28.0332 139.929 28.4775 139.313 28.8096C138.698 29.1318 138.024 29.293 137.292 29.293H136.838C136.232 29.293 135.661 29.1807 135.124 28.9561C134.587 28.7217 134.118 28.4043 133.718 28.0039C133.317 27.6035 133 27.1348 132.766 26.5977C132.541 26.0605 132.429 25.4893 132.429 24.8838V14H134.23V24.9863C134.23 25.3477 134.299 25.6895 134.436 26.0117C134.572 26.3242 134.758 26.5977 134.992 26.832C135.227 27.0664 135.5 27.252 135.812 27.3887C136.135 27.5254 136.477 27.5938 136.838 27.5938H138.039C138.4 27.5938 138.737 27.5254 139.05 27.3887C139.372 27.252 139.65 27.0664 139.885 26.832C140.119 26.5977 140.305 26.3242 140.441 26.0117C140.578 25.6895 140.646 25.3477 140.646 24.9863V14H142.448V29H141.848ZM156.071 24.8838C156.071 25.4893 155.954 26.0605 155.72 26.5977C155.495 27.1348 155.183 27.6035 154.782 28.0039C154.382 28.4043 153.913 28.7217 153.376 28.9561C152.839 29.1807 152.268 29.293 151.662 29.293H150.461C149.855 29.293 149.284 29.1807 148.747 28.9561C148.21 28.7217 147.741 28.4043 147.341 28.0039C146.94 27.6035 146.623 27.1348 146.389 26.5977C146.164 26.0605 146.052 25.4893 146.052 24.8838V18.1162C146.052 17.5107 146.164 16.9395 146.389 16.4023C146.623 15.8652 146.94 15.3965 147.341 14.9961C147.741 14.5957 148.21 14.2832 148.747 14.0586C149.284 13.8242 149.855 13.707 150.461 13.707H151.662C152.268 13.707 152.839 13.8242 153.376 14.0586C153.913 14.2832 154.382 14.5957 154.782 14.9961C155.183 15.3965 155.495 15.8652 155.72 16.4023C155.954 16.9395 156.071 17.5107 156.071 18.1162V21.6465H147.854V24.9863C147.854 25.3477 147.922 25.6895 148.059 26.0117C148.195 26.3242 148.381 26.5977 148.615 26.832C148.85 27.0664 149.123 27.252 149.436 27.3887C149.758 27.5254 150.1 27.5938 150.461 27.5938H151.662C152.023 27.5938 152.36 27.5254 152.673 27.3887C152.995 27.252 153.273 27.0664 153.508 26.832C153.742 26.5977 153.928 26.3242 154.064 26.0117C154.201 25.6895 154.27 25.3477 154.27 24.9863V23.9902L156.071 24.2832V24.8838ZM154.27 18.0137C154.27 17.6523 154.201 17.3154 154.064 17.0029C153.928 16.6807 153.742 16.4023 153.508 16.168C153.273 15.9336 152.995 15.748 152.673 15.6113C152.36 15.4746 152.023 15.4062 151.662 15.4062H150.461C150.1 15.4062 149.758 15.4746 149.436 15.6113C149.123 15.748 148.85 15.9336 148.615 16.168C148.381 16.4023 148.195 16.6807 148.059 17.0029C147.922 17.3154 147.854 17.6523 147.854 18.0137V20.2402H154.27V18.0137ZM169.987 25.1914C169.987 25.7969 169.865 26.3535 169.621 26.8613C169.377 27.3594 169.045 27.7891 168.625 28.1504C168.205 28.5117 167.717 28.7949 167.16 29C166.613 29.1953 166.037 29.293 165.432 29.293H164.23C163.625 29.293 163.044 29.1807 162.487 28.9561C161.94 28.7217 161.457 28.4043 161.037 28.0039C160.627 27.6035 160.295 27.1348 160.041 26.5977C159.797 26.0605 159.675 25.4893 159.675 24.8838V24.2832L161.477 23.9902V24.9863C161.477 25.3477 161.55 25.6895 161.696 26.0117C161.853 26.3242 162.058 26.5977 162.312 26.832C162.565 27.0664 162.858 27.252 163.19 27.3887C163.522 27.5254 163.869 27.5938 164.23 27.5938H165.432C165.793 27.5938 166.14 27.54 166.472 27.4326C166.804 27.3252 167.097 27.1738 167.351 26.9785C167.614 26.7734 167.819 26.5293 167.966 26.2461C168.122 25.9629 168.2 25.6406 168.2 25.2793C168.2 24.7422 168.083 24.3027 167.849 23.9609C167.614 23.6191 167.302 23.3359 166.911 23.1113C166.53 22.877 166.091 22.6865 165.593 22.54C165.104 22.3838 164.602 22.2324 164.084 22.0859C163.566 21.9297 163.059 21.7539 162.561 21.5586C162.072 21.3633 161.633 21.1094 161.242 20.7969C160.861 20.4746 160.554 20.0742 160.319 19.5957C160.085 19.1172 159.968 18.5215 159.968 17.8086C159.968 17.2031 160.085 16.6514 160.319 16.1533C160.554 15.6455 160.871 15.2109 161.271 14.8496C161.672 14.4883 162.136 14.21 162.663 14.0146C163.2 13.8096 163.771 13.707 164.377 13.707H165.432C166.037 13.707 166.608 13.8242 167.146 14.0586C167.683 14.2832 168.151 14.5957 168.552 14.9961C168.952 15.3965 169.265 15.8652 169.489 16.4023C169.724 16.9395 169.841 17.5107 169.841 18.1162V18.1748L168.039 18.4678V18.0137C168.039 17.6523 167.971 17.3154 167.834 17.0029C167.697 16.6807 167.512 16.4023 167.277 16.168C167.043 15.9336 166.765 15.748 166.442 15.6113C166.13 15.4746 165.793 15.4062 165.432 15.4062H164.377C164.016 15.4062 163.674 15.46 163.352 15.5674C163.039 15.6748 162.766 15.8311 162.531 16.0361C162.297 16.2314 162.111 16.4707 161.975 16.7539C161.838 17.0371 161.77 17.3594 161.77 17.7207C161.77 18.2383 161.887 18.6631 162.121 18.9951C162.355 19.3174 162.663 19.5908 163.044 19.8154C163.435 20.04 163.874 20.2305 164.362 20.3867C164.86 20.5332 165.363 20.6895 165.871 20.8555C166.389 21.0117 166.892 21.1924 167.38 21.3975C167.878 21.6025 168.317 21.8662 168.698 22.1885C169.089 22.5107 169.401 22.916 169.636 23.4043C169.87 23.8828 169.987 24.4785 169.987 25.1914ZM178.908 29C178.361 29 177.844 28.8975 177.355 28.6924C176.877 28.4873 176.457 28.2041 176.096 27.8428C175.744 27.4814 175.461 27.0615 175.246 26.583C175.041 26.1045 174.938 25.5918 174.938 25.0449V15.7139H172.243V14H174.938V10.3965L176.74 10.1035V14H180.549V15.7139H176.74V25.1328C176.74 25.4355 176.794 25.7188 176.901 25.9824C177.019 26.2363 177.175 26.4609 177.37 26.6562C177.565 26.8516 177.795 27.0078 178.059 27.125C178.322 27.2324 178.605 27.2861 178.908 27.2861H180.549V29H178.908Z" fill="black"/>
</svg>
